<svg xmlns="http://www.w3.org/2000/svg" width="666.667" height="666.667" version="1" viewBox="0 0 500 500"><path d="M322.8 158.2c-4.4 1.2-11.2 6.8-13.5 11.2-2.2 4.1-2.2 14.1 0 18.2.8 1.7 3.4 4.7 5.6 6.7 15.4 13.9 41-.9 36-20.8-1.7-6.7-8.6-13.7-15.1-15.3-5.4-1.4-7.9-1.4-13 0zM398.2 158.3c-5.3 1.7-11.8 8.1-13.6 13.4-2 5.8-2 7.8 0 13.6 3.2 9.3 13.5 15.7 23.3 14.2 13.6-2 21.6-13.2 18.9-26.1-1.5-6.9-8.6-13.8-15.7-15.3-6.1-1.3-8.4-1.3-12.9.2zM158.8 166.9c-6.6 1.4-12.8 6.7-15.8 13.6-2.1 4.8-16.7 58.8-27 100-1.8 7.1-3.6 13.4-4.1 13.8-.4.5-1.1-1.1-1.7-3.5-1.4-6.3-27.6-109.5-30.2-119.1l-1.1-3.7H59.5c-10.7 0-19.5.3-19.5.6 0 .7 2.6 10.2 18.2 66.4 26.3 95.3 25.8 93.9 33.5 101.2 13.2 12.7 33.9 9.3 42.3-7.1 2.1-4.3 5.4-14.4 9-27.6l6-22c2.1-7.7 6.4-23.5 9.6-35 3.1-11.6 6.1-21.4 6.5-21.9.4-.5 1.3 1.1 1.9 3.5 1.3 5.1 12.1 44.8 18 66.4 9.4 34.3 11.3 39 18.4 45.2 13.1 11.6 33.4 6.7 41.6-10 2.9-6 32.4-108.3 44-153l1.8-6.7h-19.9c-10.9 0-19.9.3-19.9.6 0 .4-4.5 18.5-10.1 40.3-16.9 66.6-21.5 84-22.3 84.8-.5.5-1.9-4.3-7-24.2-8.2-31.7-11.1-43-16.8-63.9-6.7-24.9-7.4-26.8-11.3-31.4-5.2-6.2-15.5-9.2-24.7-7.3zM311 282v61h37V221h-37v61zM387 282v61l18.5-.2 18.5-.3.3-60.8.2-60.7H387v61zM436.3 329.7c2.6.4 2.7.6 2.7 6.9 0 8.2 1.8 8.4 2.2.2.3-5.7.5-6.3 2.8-6.9 1.6-.4.1-.7-4-.7-3.6.1-5.3.3-3.7.5zM447 336c0 4 .4 7 1 7s1-1.8 1-4c0-5 1.5-5.2 2.4-.4.9 4.7 3.7 4.3 4.9-.9 1.1-4.8 2.2-4.8 2.2 0 0 6.9 2 5.1 2.3-2 .3-6.1.1-6.7-1.7-6.7-1.4 0-2.3 1.1-3.1 3.7-1.9 5.7-2.6 5.9-3.9.9-.9-3.5-1.6-4.6-3.1-4.6-1.8 0-2 .7-2 7z"/></svg>